{
  "accessors": [
    {
      "bufferView": 1,
      "componentType": 5126,
      "count": 1424,
      "max": [
        0.42724999785423279,
        -0.46114000678062439,
        0.61559998989105225
      ],
      "min": [
        -0.42724999785423279,
        -1.4346200227737427,
        0.46729001402854919
      ],
      "type": "VEC3"
    },
    {
      "bufferView": 1,
      "byteOffset": 17088,
      "componentType": 5126,
      "count": 1424,
      "max": [
        0.99883025884628296,
        0.99328511953353882,
        0.99963831901550293
      ],
      "min": [
        -0.99883025884628296,
        -0.99997860193252563,
        -0.22367283701896667
      ],
      "type": "VEC3"
    },
    {
      "bufferView": 0,
      "componentType": 5125,
      "count": 7680,
      "max": [
        1423
      ],
      "min": [
        0
      ],
      "type": "SCALAR"
    },
    {
      "bufferView": 1,
      "byteOffset": 34176,
      "componentType": 5126,
      "count": 4391,
      "max": [
        0.64592999219894409,
        1.0197999477386475,
        1.0310599803924561
      ],
      "min": [
        -0.64592999219894409,
        -1.6818699836730957,
        0.27601000666618347
      ],
      "type": "VEC3"
    },
    {
      "bufferView": 1,
      "byteOffset": 86868,
      "componentType": 5126,
      "count": 4391,
      "max": [
        0.99999934434890747,
        0.99953335523605347,
        0.99918085336685181
      ],
      "min": [
        -0.99999934434890747,
        -0.98729038238525391,
        -0.99976390600204468
      ],
      "type": "VEC3"
    },
    {
      "bufferView": 0,
      "byteOffset": 30720,
      "componentType": 5125,
      "count": 25614,
      "max": [
        4390
      ],
      "min": [
        0
      ],
      "type": "SCALAR"
    },
    {
      "bufferView": 1,
      "byteOffset": 139560,
      "componentType": 5126,
      "count": 8952,
      "max": [
        0.69339001178741455,
        2.6857600212097168,
        1.3902699947357178
      ],
      "min": [
        -0.69339001178741455,
        -1.6886999607086182,
        2.9999999242136255e-05
      ],
      "type": "VEC3"
    },
    {
      "bufferView": 1,
      "byteOffset": 246984,
      "componentType": 5126,
      "count": 8952,
      "max": [
        1,
        1,
        1
      ],
      "min": [
        -1,
        -1,
        -1
      ],
      "type": "VEC3"
    },
    {
      "bufferView": 0,
      "byteOffset": 133176,
      "componentType": 5125,
      "count": 36576,
      "max": [
        8951
      ],
      "min": [
        0
      ],
      "type": "SCALAR"
    },
    {
      "bufferView": 1,
      "byteOffset": 354408,
      "componentType": 5126,
      "count": 770,
      "max": [
        0.51819998025894165,
        0.90544998645782471,
        1.0107500553131104
      ],
      "min": [
        -0.51819998025894165,
        -0.10344000160694122,
        0.66350001096725464
      ],
      "type": "VEC3"
    },
    {
      "bufferView": 1,
      "byteOffset": 363648,
      "componentType": 5126,
      "count": 770,
      "max": [
        0.99930703639984131,
        0.99666202068328857,
        0.99131643772125244
      ],
      "min": [
        -0.99930703639984131,
        -0.96720719337463379,
        -0.98683857917785645
      ],
      "type": "VEC3"
    },
    {
      "bufferView": 0,
      "byteOffset": 279480,
      "componentType": 5125,
      "count": 4608,
      "max": [
        769
      ],
      "min": [
        0
      ],
      "type": "SCALAR"
    },
    {
      "bufferView": 1,
      "byteOffset": 372888,
      "componentType": 5126,
      "count": 744,
      "max": [
        0.65079998970031738,
        2.2187099456787109,
        1.4070500135421753
      ],
      "min": [
        -0.65079998970031738,
        1.0170899629592896,
        0.8930400013923645
      ],
      "type": "VEC3"
    },
    {
      "bufferView": 1,
      "byteOffset": 381816,
      "componentType": 5126,
      "count": 744,
      "max": [
        1,
        0.93397969007492065,
        0.99999195337295532
      ],
      "min": [
        -1,
        -0.9997711181640625,
        -0.99991780519485474
      ],
      "type": "VEC3"
    },
    {
      "bufferView": 0,
      "byteOffset": 297912,
      "componentType": 5125,
      "count": 3855,
      "max": [
        743
      ],
      "min": [
        0
      ],
      "type": "SCALAR"
    }
  ],
  "asset": {
    "extras": {
      "author": "pivotaccess (https://sketchfab.com/pivotaccess)",
      "license": "CC-BY-4.0 (http://creativecommons.org/licenses/by/4.0/)",
      "source": "https://sketchfab.com/models/56f1fd3570944046823d666dc1fb9621",
      "title": "POS Prototype"
    },
    "generator": "Sketchfab-3.18.5",
    "version": "2.0"
  },
  "bufferViews": [
    {
      "buffer": 0,
      "byteLength": 313332,
      "byteOffset": 0,
      "name": "floatBufferViews",
      "target": 34963
    },
    {
      "buffer": 0,
      "byteLength": 390744,
      "byteOffset": 313332,
      "byteStride": 12,
      "name": "floatBufferViews",
      "target": 34962
    }
  ],
  "buffers": [
    {
      "byteLength": 704076,
      "uri": "scene.bin"
    }
  ],
  "materials": [
    {
      "doubleSided": true,
      "emissiveFactor": [
        0,
        0,
        0
      ],
      "name": "Material.Grey",
      "pbrMetallicRoughness": {
        "baseColorFactor": [
          0.20863687010000001,
          0.20863687010000001,
          0.20863687010000001,
          1
        ],
        "metallicFactor": 0.20000000000000001,
        "roughnessFactor": 0.5
      }
    },
    {
      "doubleSided": true,
      "emissiveFactor": [
        0,
        0,
        0
      ],
      "name": "Material",
      "pbrMetallicRoughness": {
        "baseColorFactor": [
          0.79910273799999998,
          0.79910273799999998,
          0.79910273799999998,
          1
        ],
        "metallicFactor": 0.5,
        "roughnessFactor": 0
      }
    },
    {
      "doubleSided": true,
      "emissiveFactor": [
        0,
        0,
        0
      ],
      "name": "Material.001",
      "pbrMetallicRoughness": {
        "baseColorFactor": [
          0.4735314961,
          0.0122864884,
          0.0152085144,
          1
        ],
        "metallicFactor": 0.29999999999999999,
        "roughnessFactor": 0
      }
    },
    {
      "alphaMode": "BLEND",
      "doubleSided": true,
      "emissiveFactor": [
        1,
        1,
        1
      ],
      "name": "Screen",
      "pbrMetallicRoughness": {
        "baseColorFactor": [
          1,
          1,
          1,
          0.20000000000000001
        ],
        "metallicFactor": 1,
        "roughnessFactor": 0
      }
    }
  ],
  "meshes": [
    {
      "name": "POS.Prototype.Buttons_0",
      "primitives": [
        {
          "attributes": {
            "NORMAL": 1,
            "POSITION": 0
          },
          "indices": 2,
          "material": 0,
          "mode": 4
        }
      ]
    },
    {
      "name": "POS.Prototype_0",
      "primitives": [
        {
          "attributes": {
            "NORMAL": 4,
            "POSITION": 3
          },
          "indices": 5,
          "material": 1,
          "mode": 4
        }
      ]
    },
    {
      "name": "POS.Prototype_1",
      "primitives": [
        {
          "attributes": {
            "NORMAL": 7,
            "POSITION": 6
          },
          "indices": 8,
          "material": 2,
          "mode": 4
        }
      ]
    },
    {
      "name": "POS.Prototype_2",
      "primitives": [
        {
          "attributes": {
            "NORMAL": 10,
            "POSITION": 9
          },
          "indices": 11,
          "material": 3,
          "mode": 4
        }
      ]
    },
    {
      "name": "POS.Prototype.Cover_0",
      "primitives": [
        {
          "attributes": {
            "NORMAL": 13,
            "POSITION": 12
          },
          "indices": 14,
          "material": 0,
          "mode": 4
        }
      ]
    }
  ],
  "nodes": [
    {
      "children": [
        1
      ],
      "name": "RootNode (gltf orientation matrix)",
      "rotation": [
        -0.70710678118654746,
        -0,
        -0,
        0.70710678118654757
      ]
    },
    {
      "children": [
        2
      ],
      "name": "RootNode (model correction matrix)"
    },
    {
      "children": [
        3,
        5,
        9
      ],
      "name": "Root"
    },
    {
      "children": [
        4
      ],
      "name": "POS.Prototype.Buttons"
    },
    {
      "mesh": 0,
      "name": "POS.Prototype.Buttons_0"
    },
    {
      "children": [
        6,
        7,
        8
      ],
      "name": "POS.Prototype"
    },
    {
      "mesh": 1,
      "name": "POS.Prototype_0"
    },
    {
      "mesh": 2,
      "name": "POS.Prototype_1"
    },
    {
      "mesh": 3,
      "name": "POS.Prototype_2"
    },
    {
      "children": [
        10
      ],
      "name": "POS.Prototype.Cover"
    },
    {
      "mesh": 4,
      "name": "POS.Prototype.Cover_0"
    }
  ],
  "scene": 0,
  "scenes": [
    {
      "name": "OSG_Scene",
      "nodes": [
        0
      ]
    }
  ]
}

